<svg width="245" height="50" viewBox="0 0 245 50" fill="none" xmlns="http://www.w3.org/2000/svg">
<path d="M11.064 26.28H7.992V39H0.119995V5.73599H11.016C15.56 5.73599 18.968 6.56799 21.24 8.23199C23.544 9.89599 24.696 12.44 24.696 15.864C24.696 18.008 24.184 19.8 23.16 21.24C22.136 22.648 20.52 23.848 18.312 24.84L26.76 39H17.88L11.064 26.28ZM7.992 20.856H11.304C13.064 20.856 14.376 20.456 15.24 19.656C16.136 18.856 16.584 17.592 16.584 15.864C16.584 14.264 16.104 13.096 15.144 12.36C14.216 11.624 12.776 11.256 10.824 11.256H7.992V20.856Z" fill="black"/>
<path d="M43.665 39.048C42.641 42.344 40.961 44.872 38.625 46.632C36.321 48.424 33.217 49.432 29.313 49.656L28.497 44.328C30.929 44.008 32.721 43.464 33.873 42.696C35.057 41.928 36.001 40.696 36.705 39H34.113L26.337 13.512H34.401L38.961 34.152L43.953 13.512H51.777L43.665 39.048Z" fill="black"/>
<path d="M73.6226 31.608C73.6226 32.568 73.7506 33.272 74.0066 33.72C74.2946 34.168 74.7426 34.504 75.3506 34.728L73.7666 39.672C72.1986 39.544 70.9186 39.208 69.9266 38.664C68.9346 38.088 68.1666 37.192 67.6226 35.976C65.9586 38.536 63.3986 39.816 59.9426 39.816C57.4146 39.816 55.3986 39.08 53.8946 37.608C52.3906 36.136 51.6386 34.216 51.6386 31.848C51.6386 29.064 52.6626 26.936 54.7106 25.464C56.7586 23.992 59.7186 23.256 63.5906 23.256H66.1826V22.152C66.1826 20.648 65.8626 19.624 65.2226 19.08C64.5826 18.504 63.4626 18.216 61.8626 18.216C61.0306 18.216 60.0226 18.344 58.8386 18.6C57.6546 18.824 56.4386 19.144 55.1906 19.56L53.4626 14.568C55.0626 13.96 56.6946 13.496 58.3586 13.176C60.0546 12.856 61.6226 12.696 63.0626 12.696C66.7106 12.696 69.3826 13.448 71.0786 14.952C72.7746 16.456 73.6226 18.712 73.6226 21.72V31.608ZM62.1506 34.392C63.8786 34.392 65.2226 33.576 66.1826 31.944V27.432H64.3106C62.5826 27.432 61.2866 27.736 60.4226 28.344C59.5906 28.952 59.1746 29.896 59.1746 31.176C59.1746 32.2 59.4306 33 59.9426 33.576C60.4866 34.12 61.2226 34.392 62.1506 34.392Z" fill="black"/>
<path d="M94.5915 12.696C96.7995 12.696 98.5275 13.368 99.7755 14.712C101.023 16.056 101.647 17.944 101.647 20.376V39H94.0635V21.672C94.0635 20.392 93.8555 19.512 93.4395 19.032C93.0555 18.52 92.4635 18.264 91.6635 18.264C90.1275 18.264 88.6555 19.368 87.2475 21.576V39H79.6635V13.512H86.2875L86.8155 16.536C87.9035 15.256 89.0715 14.296 90.3195 13.656C91.5995 13.016 93.0235 12.696 94.5915 12.696Z" fill="black"/>
<path d="M143.813 5.73599L134.549 39H124.757L115.157 5.73599H123.461L129.797 32.856L135.749 5.73599H143.813Z" fill="black"/>
<path d="M153.716 13.512V39H146.132V13.512H153.716ZM149.876 0.071991C151.188 0.071991 152.26 0.487991 153.092 1.31999C153.956 2.11999 154.388 3.14399 154.388 4.39199C154.388 5.63999 153.956 6.67999 153.092 7.51199C152.26 8.31199 151.188 8.71199 149.876 8.71199C148.564 8.71199 147.492 8.31199 146.66 7.51199C145.828 6.67999 145.412 5.63999 145.412 4.39199C145.412 3.14399 145.828 2.11999 146.66 1.31999C147.492 0.487991 148.564 0.071991 149.876 0.071991Z" fill="black"/>
<path d="M170.719 12.696C172.479 12.696 174.063 12.952 175.471 13.464C176.879 13.976 178.207 14.76 179.455 15.816L176.191 20.328C174.591 19.112 172.975 18.504 171.343 18.504C169.647 18.504 168.367 19.128 167.503 20.376C166.639 21.624 166.207 23.64 166.207 26.424C166.207 29.112 166.639 31.016 167.503 32.136C168.367 33.256 169.615 33.816 171.247 33.816C172.111 33.816 172.895 33.688 173.599 33.432C174.303 33.144 175.151 32.696 176.143 32.088L179.455 36.792C176.927 38.808 174.063 39.816 170.863 39.816C168.271 39.816 166.031 39.272 164.143 38.184C162.255 37.064 160.799 35.512 159.775 33.528C158.751 31.512 158.239 29.16 158.239 26.472C158.239 23.784 158.751 21.4 159.775 19.32C160.799 17.24 162.255 15.624 164.143 14.472C166.031 13.288 168.223 12.696 170.719 12.696Z" fill="black"/>
<path d="M198.632 37.8C197.704 38.44 196.616 38.936 195.368 39.288C194.152 39.64 192.936 39.816 191.72 39.816C186.152 39.784 183.368 36.712 183.368 30.6V18.792H179.768V13.512H183.368V7.99199L190.952 7.12799V13.512H196.808L195.992 18.792H190.952V30.504C190.952 31.688 191.144 32.536 191.528 33.048C191.912 33.56 192.52 33.816 193.352 33.816C194.216 33.816 195.128 33.544 196.088 33L198.632 37.8Z" fill="black"/>
<path d="M211.36 12.696C215.264 12.696 218.32 13.896 220.528 16.296C222.736 18.664 223.84 21.992 223.84 26.28C223.84 29 223.328 31.384 222.304 33.432C221.312 35.448 219.872 37.016 217.984 38.136C216.128 39.256 213.92 39.816 211.36 39.816C207.488 39.816 204.432 38.632 202.192 36.264C199.984 33.864 198.88 30.52 198.88 26.232C198.88 23.512 199.376 21.144 200.368 19.128C201.392 17.08 202.832 15.496 204.688 14.376C206.576 13.256 208.8 12.696 211.36 12.696ZM211.36 18.264C209.824 18.264 208.672 18.92 207.904 20.232C207.136 21.512 206.752 23.512 206.752 26.232C206.752 29.016 207.12 31.048 207.856 32.328C208.624 33.608 209.792 34.248 211.36 34.248C212.896 34.248 214.048 33.608 214.816 32.328C215.584 31.016 215.968 29 215.968 26.28C215.968 23.496 215.584 21.464 214.816 20.184C214.08 18.904 212.928 18.264 211.36 18.264Z" fill="black"/>
<path d="M242.175 12.792C243.103 12.792 243.951 12.904 244.719 13.128L243.519 20.472C242.559 20.248 241.791 20.136 241.215 20.136C239.711 20.136 238.559 20.664 237.759 21.72C236.991 22.744 236.383 24.296 235.935 26.376V39H228.351V13.512H234.975L235.599 18.456C236.175 16.696 237.039 15.32 238.191 14.328C239.375 13.304 240.703 12.792 242.175 12.792Z" fill="black"/>
</svg>
